<svg xmlns="http://www.w3.org/2000/svg" width="1326.351" height="846.999" viewBox="0 0 1326.351 846.999"><g transform="translate(-401.648 -1183.999)"><path d="M1428.922,1184l3.077,3.077L1355.078,1264,1352,1260.92Z" fill="#5d58f7"/><path d="M1392.422,1244l1.577,1.577L1354.578,1285l-1.577-1.576Z" fill="#f847a3"/><path d="M1726.076,1552l1.923,1.923L1679.924,1602l-1.923-1.923Z" fill="#f79b58"/><path d="M1361.23,1870l.769.77L1342.77,1890l-.769-.769Z" fill="#f158f7"/><path d="M961.23,1610l.769.769L942.769,1630l-.769-.769Z" fill="#f75858"/><path d="M1003.422,1836l1.577,1.577L965.578,1877,964,1875.421Z" fill="#0cba15"/><path d="M1654.442,1789.683l.369,33.99-29.185-16.68,28.817-17.31m-3.568,27.253c-.071-6.524-.151-13.907-.222-20.432l-17.322,10.406c5.591,3.194,11.93,6.818,17.544,10.026" fill="#2fd4e3"/><path d="M423.354,2003.995a14.251,14.251,0,0,1,.616,20.478,15.08,15.08,0,0,1-20.965.555" fill="none" stroke="#0fc565" stroke-width="4" opacity="0.502"/></g></svg>