<svg xmlns="http://www.w3.org/2000/svg" width="702.991" height="769.496" viewBox="0 0 702.991 769.496"><g transform="translate(-1010 -3182.494)"><path d="M1227.577,3191.007l1.414,1.414-26.568,26.569-1.414-1.414Z" fill="#e3e114"/><path d="M1629.4,3205.448A11.933,11.933,0,0,0,1634,3196c-.116-6.407-5.932-11.835-12-12a11.665,11.665,0,0,0-7.688,2.786" fill="none" stroke="#0ae4f2" stroke-width="3"/><path d="M1447,3234h21l-10.5-18-10.5,18m16.808-2.4h-12.62l6.31-10.822,6.31,10.822" fill="#9a97f8"/><path d="M1711.577,3396.008l1.414,1.414-16.569,16.568-1.414-1.414Z" fill="#f951db"/><path d="M1701.577,3545.007l1.414,1.414-56.568,56.568-1.414-1.414Z" fill="#0fc565"/><path d="M1468.742,3903.393l16.435,11.991,1.587-20.773-18.022,8.782m14.463,7.631-9.879-7.208,10.833-5.278-.954,12.487" fill="#d5e01f"/><path d="M1247.577,3934.007l1.414,1.414-16.569,16.569-1.414-1.414Z" fill="#1ccee3"/><path d="M1648.577,3847.007l1.414,1.414-26.568,26.568-1.414-1.414Z" fill="#fb5357"/><path d="M1059.577,3680.007l1.414,1.414-36.569,36.568-1.414-1.414Z" fill="#9a97f8"/><g transform="translate(1010 3503)" fill="none" stroke="#9fd915" stroke-width="3"><circle cx="12" cy="12" r="12" stroke="none"/><circle cx="12" cy="12" r="10.5" fill="none"/></g></g></svg>