<svg xmlns="http://www.w3.org/2000/svg" width="2368.799" height="1648.12" viewBox="0 0 2368.799 1648.12"><defs><style>.a{fill:#fdfdfd;}.a,.b{opacity:0.039;}.b{fill:#fff;}</style></defs><g transform="translate(279.061 253.06)"><path class="a" d="M2006.264-66.263c111.3,111.3,111.3,291.749,0,403.048L1560.787,782.263c-111.3,111.3-291.752,111.3-403.051,0s-111.3-291.752,0-403.051L1603.213-66.263C1714.512-177.562,1894.965-177.562,2006.264-66.263Z"/><path class="b" d="M1667.487-235.487a60,60,0,0,1,0,84.853l-410.122,410.12a60,60,0,0,1-84.853-84.853l410.122-410.12A60,60,0,0,1,1667.487-235.487Z"/><path class="b" d="M233.487,882.512a60,60,0,0,1,0,84.853l-410.122,410.122a60,60,0,0,1-84.853,0,60,60,0,0,1,0-84.852L148.635,882.512A60,60,0,0,1,233.487,882.512Z"/><path class="b" d="M262.86,692.119a38.032,38.032,0,0,1,0,53.785L2.9,1005.859a38.031,38.031,0,0,1-53.784,0,38.031,38.031,0,0,1,0-53.784L209.076,692.119A38.032,38.032,0,0,1,262.86,692.119Z"/></g></svg>