<svg xmlns="http://www.w3.org/2000/svg" width="583.989" height="727.983" viewBox="0 0 583.989 727.983"><g transform="translate(-201.002 -2091.007)"><path d="M558.423,2091.007l-1.414,1.414,26.569,26.568,1.414-1.414Z" fill="#9a97f8"/><path d="M281.6,2285.448A11.935,11.935,0,0,1,277,2276c.116-6.409,5.932-11.836,12-12a11.663,11.663,0,0,1,7.688,2.786" fill="none" stroke="#0ae4f2" stroke-width="3"/><path d="M222,2410H201l10.5-18,10.5,18m-16.808-2.4h12.62l-6.31-10.821-6.31,10.821" fill="#9a97f8"/><path d="M308.423,2411.007l-1.414,1.415,16.568,16.568,1.414-1.415Z" fill="#f95151"/><path d="M266.423,2588.007l-1.414,1.414,56.569,56.568,1.414-1.414Z" fill="#0fc565"/><path d="M323.258,2775.393l-17.234,11.99-1.664-20.772,18.9,8.782m-15.167,7.63,10.36-7.208-11.36-5.279,1,12.487" fill="#f48f23"/><path d="M690.423,2801.007l-1.414,1.414,16.569,16.569,1.414-1.415Z" fill="#1ccee3"/><path d="M748.423,2781.007l-1.414,1.414,36.569,36.569,1.414-1.415Z" fill="#9a97f8"/><g transform="translate(707 2534)" fill="none" stroke="#9fd915" stroke-width="3"><circle cx="12" cy="12" r="12" stroke="none"/><circle cx="12" cy="12" r="10.5" fill="none"/></g><path d="M672.687,2368l-.683.682,27.309,27.309.683-.683Z" fill="#ced007"/></g></svg>